<?xml version="1.0" encoding="utf-8"?>
<!-- Generator: Adobe Illustrator 24.0.1, SVG Export Plug-In . SVG Version: 6.00 Build 0)  -->
<svg version="1.1" id="Layer_1" xmlns="http://www.w3.org/2000/svg" xmlns:xlink="http://www.w3.org/1999/xlink" x="0px" y="0px"
	 width="191.4px" height="191.4px" viewBox="0 0 191.4 191.4" style="enable-background:new 0 0 191.4 191.4;" xml:space="preserve"
	>
<style type="text/css">
	.st0{fill:#61AAC1;}
	.st1{fill:#FFFFFF;fill-opacity:0.25;}
	.st2{fill:#FFFFFF;}
	.st3{fill:#F1F1F1;}
	.st4{fill:#616161;}
	.st5{fill:url(#SVGID_1_);}
</style>
<circle class="st0" cx="95.5" cy="95.5" r="95.5"/>
<path class="st1" d="M153.8,20c41.9,32,50,91.9,18,133.8c-32,41.9-91.9,50-133.8,18c1.2-1.6,60.8-23.7,92.8-65.7
	C162.8,64.3,153.8,20,153.8,20z"/>
<circle class="st2" cx="95" cy="96" r="75"/>
<path class="st3" d="M157.3,54.3c8.6,12.8,13,28,12.7,43.5c-0.4,15.5-5.5,30.4-14.7,42.8c-9.2,12.4-22,21.7-36.7,26.6
	c-14.7,4.9-30.5,5.1-45.3,0.6l3.5-11.5c12.4,3.8,25.7,3.6,38.1-0.5c12.3-4.1,23.1-11.9,30.8-22.3c7.7-10.4,12-23,12.3-36
	c0.3-13-3.4-25.7-10.6-36.5L157.3,54.3z"/>
<circle class="st4" cx="95" cy="96" r="69"/>
<radialGradient id="SVGID_1_" cx="96.0192" cy="116.8614" r="1" gradientTransform="matrix(90.9999 129.0001 129.0001 -90.9999 -23758.8652 -1721.6129)" gradientUnits="userSpaceOnUse">
	<stop  offset="0" style="stop-color:#6F6F6F"/>
	<stop  offset="1" style="stop-color:#000000;stop-opacity:0.8"/>
</radialGradient>
<circle class="st5" cx="95" cy="96" r="69"/>
</svg>
