<svg width="252" height="182" viewBox="0 0 252 182" fill="none" xmlns="http://www.w3.org/2000/svg">
<path d="M134.242 26.6591C134.279 26.4825 131.414 25.5622 131.307 25.5622C131.2 25.5622 127.739 24.3626 127.739 24.3626C127.739 24.3626 122.756 23.7956 122.719 23.6559C122.682 23.5162 116.993 23.3724 116.779 23.4423C116.565 23.5121 113.634 25.0487 113.281 25.0404C112.927 25.0322 110.876 27.0453 110.806 27.222C110.736 27.3986 110.383 28.9886 110.313 29.3419C110.243 29.6952 110.276 31.1783 110.313 31.5686C110.35 31.9589 110.596 32.4149 110.596 32.8422C110.596 33.2654 110.773 33.9391 110.596 34.009C110.42 34.0788 109.466 34.1856 108.759 34.1856C108.052 34.1856 105.153 34.8923 105.014 34.9991C104.874 35.1059 103.563 38.1091 103.563 38.1091L104.093 39.0622C104.093 39.0622 105.4 39.2759 105.684 39.0622C105.967 38.8486 105.898 37.9653 106.531 37.686C107.168 37.4025 107.061 37.3696 108.228 37.1929C109.396 37.0163 110.387 37.156 111.657 36.9464C112.927 36.7369 113.034 36.9834 113.495 36.6999C113.955 36.4165 114.378 35.8865 114.025 35.11C113.671 34.3335 113.671 34.2966 113.458 33.7666C113.244 33.2366 112.75 31.433 112.82 30.8003C112.89 30.1677 113.634 28.7873 113.951 28.397C114.267 28.0067 115.081 27.1973 115.649 26.9467C116.216 26.7002 121.445 26.2771 121.869 26.2031C122.292 26.1333 126.181 26.9097 127.028 27.0166C127.875 27.1234 130.596 27.8629 131.554 28.1464C132.508 28.4298 134.205 28.9598 134.452 28.9927C134.699 29.0297 135.796 28.853 135.829 28.5325C135.862 28.2121 135.122 26.8358 135.122 26.8358L134.242 26.6591Z" fill="#2F3033"/>
<path d="M127.414 51.5639C127.492 51.6009 128.516 51.9871 128.516 51.9871C128.516 51.9871 130.353 49.7275 130.707 49.1975C131.061 48.6675 132.298 47.6076 132.405 47.4309C132.512 47.2542 134.526 46.1943 134.526 46.1943C134.526 46.1943 136.257 46.3011 136.401 46.3709C136.54 46.4408 137.461 47.3241 137.531 47.4679C137.601 47.6076 138.024 48.5278 138.061 48.6346C138.098 48.7415 138.061 50.8942 138.061 50.8942C138.061 50.8942 136.964 55.0272 136.861 55.2737C136.754 55.5202 134.847 58.4536 134.81 58.5933C134.773 58.733 133.256 61.0295 133.256 61.0295L132.088 61.3829C132.088 61.3829 131.381 61.3829 131.204 61.2062C131.028 61.0296 130.637 61.2432 130.567 60.6064C130.497 59.9696 130.921 59.1931 131.167 58.9466C131.414 58.7001 132.697 57.6032 132.746 57.4964C132.795 57.3896 134.773 53.577 134.81 53.3264C134.847 53.0799 135.833 51.0298 136.187 50.4629C136.54 49.8959 136.257 48.5196 136.257 48.5196C136.257 48.5196 135.48 48.0595 135.233 48.1293C134.987 48.1992 133.782 49.0825 133.642 49.2263C133.502 49.3659 131.838 51.2393 131.838 51.3462C131.838 51.453 130.14 54.5959 130.07 54.7356C130 54.8752 129.363 56.8185 129.326 57.0691C129.289 57.3156 129.396 59.2588 129.54 59.5423C129.679 59.8258 128.972 62.1922 128.972 62.1922C128.972 62.1922 127.344 64.3121 126.958 64.3491C126.571 64.3861 125.827 64.7394 125.581 64.3491C125.334 63.9588 124.874 63.2891 124.911 62.7592C124.948 62.2292 125.371 61.5595 125.688 61.276C126.004 60.9926 127.172 59.6163 127.172 59.4725C127.172 59.3287 126.855 57.1389 126.925 56.8924C126.995 56.6459 127.262 55.6188 127.41 55.1258C127.558 54.6328 127.735 54.2056 127.735 54.2056L126.428 53.9591L125.474 56.609L123.599 58.4824C123.599 58.4824 121.408 60.1421 121.231 60.1791C121.055 60.2161 119.287 60.1791 118.794 59.8628C118.3 59.5464 117.519 58.2359 117.272 57.9894C117.026 57.7429 116.426 56.4693 116.459 56.2228C116.496 55.9763 116.282 52.7594 116.282 52.7594C116.282 52.7594 117.412 49.1564 117.519 49.0866C117.626 49.0167 119.464 46.1902 119.464 46.1902L122.822 42.8008C122.822 42.8008 125.404 42.9405 125.511 43.0843C125.618 43.2239 127.085 43.8607 127.41 44.251C127.735 44.6413 127.912 46.3709 128.265 47.5377C128.619 48.7045 128.302 49.5878 128.125 49.8343C127.949 50.0808 127.414 51.5639 127.414 51.5639ZM123.603 45.3439C123.357 45.4137 121.659 47.1105 121.519 47.2501C121.379 47.3898 120.421 49.9 120.319 50.1835C120.212 50.467 119.044 52.7635 118.798 53.2935C118.551 53.8235 118.551 56.2269 118.481 56.65C118.411 57.0732 119.048 57.673 119.328 57.8497C119.612 58.0263 120.672 57.4594 120.849 57.3197C121.026 57.18 123.464 54.9533 123.607 54.8095C123.747 54.6698 124.808 51.8761 124.845 51.5228C124.882 51.1695 125.836 47.6034 125.868 47.4268C125.901 47.2501 125.552 45.3439 125.552 45.3439C125.552 45.3439 123.85 45.274 123.603 45.3439Z" fill="#2F3033"/>
<path d="M108.015 12.4935C107.447 12.5633 105.93 13.2371 105.223 13.5534C104.516 13.8698 103.032 14.0464 102.465 14.2601C101.898 14.4737 100.874 15.4268 100.483 15.6364C100.093 15.85 98.6459 16.8031 98.2225 17.2263C97.799 17.6494 96.278 19.3832 95.9614 19.6297C95.6449 19.8762 94.2307 21.8194 93.8032 22.2796C93.3798 22.7397 92.2123 24.0462 92.1424 24.3296C92.0725 24.6131 88.607 31.6425 88.3973 32.456C88.1877 33.2694 87.3737 36.9793 87.3737 37.1559C87.3737 37.3326 87.4436 41.1821 87.4436 41.3957C87.4436 41.6094 87.904 44.362 88.0109 44.6454C88.1178 44.9289 89.8156 50.6519 89.8156 50.6519C89.8156 50.6519 90.4158 51.4283 90.7365 52.4554C91.053 53.4784 93.1742 55.8119 93.1742 55.8119L92.0766 58.1455C92.0766 58.1455 91.7231 57.899 91.4065 57.6155C91.09 57.332 90.3089 56.7322 89.7087 56.2392C89.1085 55.7462 88.755 55.6024 87.7642 54.2261C86.7735 52.8498 87.2339 52.706 86.7735 51.6132C86.3131 50.5204 86.1034 49.9863 85.606 49.3166C85.1127 48.647 84.5084 45.3233 84.1918 45.1836C83.8753 45.044 83.5917 45.5369 82.6379 45.8533C81.6842 46.1696 79.9165 46.3833 77.6185 45.3274C75.3205 44.2716 76.8045 44.6865 76.1344 43.5239C75.4644 42.3571 75.0039 42.0038 74.897 41.2273C74.7902 40.4508 74.86 36.0713 74.897 35.644C74.934 35.2168 75.7439 34.4444 75.8508 34.2308C75.9577 34.0171 77.8651 30.8742 77.8651 30.8742C77.8651 30.8742 78.3954 30.6976 78.5023 30.6976C78.6092 30.6976 79.2094 30.2374 79.3862 30.1306C79.5629 30.0238 80.8003 29.5308 81.1909 29.424C81.5814 29.3172 82.7119 29.461 83.0285 29.424C83.345 29.387 84.3028 29.6007 84.4056 29.6376C84.5125 29.6746 85.5032 30.1306 85.5032 30.1306C85.5032 30.1306 85.5032 30.1306 85.717 29.3542C85.9308 28.5777 85.9637 28.7174 86.2473 28.2244C86.531 27.7314 86.3871 28.0847 86.6009 27.378C86.8146 26.6714 87.1312 26.4249 87.3778 26.0017C87.6245 25.5786 87.8711 24.6953 88.1219 24.3748C88.3685 24.0585 89.0756 23.208 89.2524 22.8219C89.4292 22.4316 90.1363 21.5483 90.1733 21.4086C90.2103 21.2689 92.7179 18.089 92.7179 18.089C92.7179 18.089 97.1372 14.1697 98.3376 13.6397C99.5379 13.1097 106.362 9.5067 106.362 9.5067C106.362 9.5067 111.065 9.08353 111.805 9.04656C112.549 9.00958 116.508 9.04656 117.108 8.90687C117.708 8.76719 125.416 11.2733 125.416 11.2733L130.859 13.9232C130.859 13.9232 136.409 18.2698 136.656 18.693C136.902 19.1161 141.321 25.6525 141.321 25.7593C141.321 25.8662 142.135 30.3155 142.135 30.3155C142.135 30.3155 142.242 33.8487 142.135 34.4115C142.029 34.9785 141.745 37.8009 141.568 38.1214C141.391 38.4377 140.931 40.1345 140.824 40.5576C140.717 40.9808 140.01 42.2544 139.303 42.5707C138.596 42.8871 137.852 42.7104 137.675 42.5707C137.498 42.431 137.215 41.4738 137.215 41.3341C137.215 41.1944 137.321 40.4878 137.498 40.0276C137.675 39.5675 138.629 36.211 138.666 36.0343C138.703 35.8577 139.019 30.5579 139.019 30.5579L137.712 25.328C137.712 25.328 135.414 21.3346 135.06 21.0553C134.707 20.7759 129.404 15.6158 128.943 15.4392C128.483 15.2625 123.04 13.1426 122.65 13.0728C122.259 13.0029 120.882 12.5428 120.882 12.5428C120.882 12.5428 116.607 11.8731 116.286 11.7992C115.969 11.7293 110.666 11.9758 110.666 11.9758C110.666 11.9758 108.578 12.4195 108.015 12.4935ZM84.1507 31.9219C84.1507 31.9219 83.3039 31.5686 82.8435 31.6384C82.383 31.7082 81.8198 31.8849 80.9689 32.4518C80.122 33.0188 79.6246 33.5816 79.2012 34.1116C78.7778 34.6416 78.2803 36.8313 78.0008 37.8215C77.7171 38.8116 78.0008 41.8148 78.0008 41.8148C78.0008 41.8148 78.4941 42.8049 79.4848 42.8049C80.4756 42.8049 82.2762 42.4516 82.9503 42.3817C83.6204 42.3119 84.3275 41.5683 84.3275 41.5683V38.3186C84.3275 38.3186 84.5742 34.7854 84.6112 34.5759C84.6482 34.3622 84.8948 32.4929 84.9277 32.2793L84.1507 31.9219Z" fill="#2F3033"/>
<path d="M115.932 64.534C116.956 64.8462 119.291 65.8035 119.698 66.013C120.105 66.2266 120.989 66.7566 120.989 66.9333C120.989 67.1099 121.166 68.0631 120.989 68.2397C120.812 68.4164 120.705 68.8067 120.105 68.7697C119.505 68.7327 118.091 68.593 117.63 68.3465C117.17 68.1 116.639 67.6769 115.756 67.2866C114.872 66.8963 114.304 66.1568 114.235 65.8035C114.165 65.4502 114.625 64.3902 114.625 64.3902L115.932 64.534Z" fill="#2F3033"/>
<path d="M129.186 63.9629C129.4 63.9629 129.753 63.3631 130.284 63.5726C130.814 63.7862 131.381 64.4559 131.307 64.8092C131.237 65.1625 130.427 65.9062 130.251 66.2923C130.07 66.6826 129.153 67.7056 128.906 68.0959C128.66 68.4862 128.376 68.9792 127.986 69.4722C127.595 69.9652 126.711 70.8485 126.465 71.0252C126.218 71.2018 124.697 72.2988 124.236 72.7918C123.776 73.2848 122.362 74.2749 122.169 74.5214C121.975 74.7679 120.845 75.5813 120.845 75.5813C120.845 75.5813 119.007 76.5016 118.687 76.5345C118.37 76.5714 117.486 76.3208 116.635 76.5345C115.784 76.7481 114.374 76.781 113.947 76.7481C113.523 76.7111 111.686 76.4318 111.686 76.4318L110.132 75.8319L109.388 75.7251L106.736 76.7604C106.736 76.7604 106.169 77.7012 105.852 78.1983C105.536 78.6913 105.108 79.4719 104.755 79.5048C104.401 79.5418 103.48 79.7883 103.304 79.5048C103.127 79.2213 103.09 77.9847 103.09 77.9847C103.09 77.9847 102.876 76.6783 103.267 76.3578C103.657 76.0415 104.681 75.0842 104.997 74.5912C105.314 74.0982 107.082 73.2478 107.435 73.0711C107.789 72.8945 109.519 72.9643 110.017 73.0013C110.51 73.0383 111.821 73.4943 111.821 73.4943C111.821 73.4943 113.626 73.3875 114.613 73.4943C115.603 73.6011 119.139 72.6808 119.139 72.6808C119.139 72.6808 121.013 71.1977 121.651 70.9142C122.288 70.6308 125.757 67.911 125.86 67.7344C125.963 67.5577 127.838 65.4008 128.084 65.1215C128.339 64.8462 129.186 63.9629 129.186 63.9629Z" fill="#2F3033"/>
<path d="M98.6089 36.1946C98.6089 36.1946 97.4085 36.3713 97.018 36.3713C96.6274 36.3713 94.8597 36.9382 94.8597 36.9382C94.8597 36.9382 93.8361 37.6448 93.5155 37.8215C93.1989 37.9982 93.055 38.4213 92.8084 38.5281C92.5617 38.635 92.2781 39.1649 92.0643 39.7648C91.8505 40.3646 91.497 41.6382 91.4271 41.8847C91.3572 42.1312 91.2873 42.9446 91.2503 43.4746C91.2133 44.0046 91.2873 45.4877 91.2503 45.841C91.2133 46.1943 90.9831 46.901 91.2421 47.7473C91.5011 48.5936 92.1712 50.2205 92.6645 51.2106C93.1578 52.2007 93.6881 52.8704 93.6552 53.3305C93.6182 53.7907 92.7015 56.0174 92.7015 56.0174C92.7015 56.0174 90.8269 59.4438 90.6501 60.2202C90.4734 60.9967 89.5525 62.0567 89.3059 62.4798C89.0592 62.903 88.2452 64.0698 88.2452 64.0698C88.2452 64.0698 88.0685 64.8462 87.9287 64.8832C87.7889 64.9202 87.2216 64.5997 86.9051 64.8832C86.5885 65.1667 85.8814 66.3335 85.9513 66.58C86.0212 66.8265 86.5885 68.5561 86.5885 68.9464C86.5885 69.3367 86.5885 70.2898 86.6255 70.9964C86.6625 71.7031 88.1795 75.5896 88.2535 75.7662C88.3233 75.9429 88.4672 76.5427 88.5371 76.8262C88.607 77.1097 88.7139 77.6027 88.7139 77.6027C88.7139 77.6027 86.9462 78.5928 86.8763 78.7325C86.8064 78.8722 85.4251 80.2526 85.4251 80.2526C85.4251 80.2526 84.2946 75.6266 84.2946 75.3431C84.2946 75.0596 84.1878 73.5066 83.9041 73.0095C83.6204 72.5165 83.7643 71.1361 83.4807 70.5363C83.197 69.9365 82.9874 68.9464 82.9504 68.5931C82.9134 68.2397 82.6338 68.1329 82.7366 67.5701C82.8394 67.0072 83.7972 66.1198 83.7972 66.1198C83.7972 66.1198 85.9184 62.6935 86.1322 62.7304C86.346 62.7674 87.1558 62.6935 87.4395 62.6606C87.7232 62.6236 88.5001 62.8003 88.7838 62.3443C89.0674 61.8841 89.3141 61.5678 89.1003 61.3541C88.8865 61.1405 88.0767 60.931 87.7232 60.7173C87.3696 60.5037 86.6995 60.1175 85.9185 60.364C85.1415 60.6105 84.8208 60.7872 84.2905 61.1076C83.7602 61.4281 83.1477 61.6006 82.7119 62.3443C82.2762 63.0879 82.0994 63.8274 81.9226 64.3943C81.7459 64.9613 81.4622 65.7377 80.862 66.2677C80.2618 66.7977 79.8713 66.8347 79.8713 66.8347L69.8694 67.718C69.8694 67.718 68.1017 68.0014 67.5344 68.1411C66.9671 68.2808 66.297 68.211 65.2734 68.4945C64.2497 68.7779 61.8078 69.2709 61.5283 69.4147C61.2447 69.5544 60.7842 69.5544 60.2909 69.6982C59.7976 69.8379 59.0165 69.6982 57.6024 70.3679C56.1882 71.0375 55.0577 71.4114 54.4904 71.5963C53.9231 71.7811 52.9365 72.9109 52.1924 73.3341C51.4483 73.7573 50.6384 75.6307 50.2849 76.021C49.9314 76.4113 50.0013 76.5879 49.3312 77.4342C48.6611 78.2806 48.0938 79.624 47.7032 80.2608C47.3127 80.8976 47.4196 80.6839 46.8194 82.0972C46.2192 83.5105 45.9355 84.3938 45.7958 84.8169C45.656 85.2401 44.842 86.5137 44.2747 87.5038C43.7074 88.4939 42.8236 92.1298 42.7208 92.5571C42.618 92.9843 40.6694 100.047 40.6694 100.047C40.6694 100.047 39.8226 102.836 39.7157 103.826C39.6088 104.816 38.8318 107.643 38.4084 109.373C37.985 111.102 37.4547 114.212 37.4547 114.212L36.9244 118.629L36.5708 121.418L35.4403 133.004C35.4403 133.004 35.0498 135.37 35.0868 135.9C35.1238 136.43 34.9758 138.443 35.0827 139.503C35.1896 140.563 35.1197 142.33 35.5431 144.129C35.9665 145.933 36.1104 148.332 36.1104 148.439C36.1104 148.546 37.2409 155.259 37.3108 155.398C37.3807 155.538 37.7342 157.835 38.0878 158.225C38.4413 158.615 38.8647 160.131 38.8647 160.131C38.8647 160.131 30.1331 160.768 29.5699 160.908C29.0026 161.047 26.4251 161.545 25.6111 161.508C24.7971 161.471 24.4806 161.618 23.0993 161.508C21.7222 161.401 18.7171 161.931 18.7171 161.931C18.7171 161.931 15.9586 162.001 15.8189 161.931C15.6791 161.861 14.3677 162.029 14.1211 161.964C13.8744 161.898 11.7532 161.98 11.7532 161.98C11.7532 161.98 6.09652 163.065 5.98963 163.065C5.88275 163.065 5.03589 163.455 3.97527 163.488C2.91465 163.525 1.32372 163.311 1.07706 163.804C0.830408 164.297 -0.443979 165.394 0.583754 165.71C1.60738 166.027 2.45834 166.203 2.45834 166.203C2.45834 166.203 7.9711 165.743 9.03172 165.78C10.0923 165.817 14.1909 165.213 14.7212 165.287C15.2516 165.357 19.7037 165.041 20.7643 165.074C21.8249 165.111 29.7426 164.367 29.8824 164.26C30.0221 164.153 32.9573 163.73 34.2317 163.73C35.5061 163.73 36.9532 163.237 38.1905 163.27C39.4279 163.303 42.2891 162.88 42.2891 162.88C42.2891 162.88 44.1637 164.4 44.5872 164.54C45.0106 164.679 46.7783 165.176 48.9694 165.423C51.1605 165.669 55.9703 166.799 56.994 166.873C58.0176 166.947 61.4831 166.98 62.5437 167.189C63.6043 167.403 67.2795 167.756 67.2795 167.756C67.2795 167.756 76.7511 168.04 77.7788 168.11C78.8065 168.18 82.4817 168.073 83.4683 168.11C84.4591 168.147 89.0181 168.463 90.3953 168.533C91.7724 168.603 97.6757 168.143 98.28 167.966C98.8802 167.789 101.746 167.046 101.778 166.413C101.811 165.78 102.025 165.316 102.025 164.93C102.025 164.544 101.672 164.753 102.239 163.8C102.806 162.847 102.379 161.187 102.453 160.936C102.523 160.69 103.02 159.24 102.983 158.956C102.946 158.673 103.02 157.613 102.983 157.757C102.946 157.896 103.616 158.603 104.644 158.64C105.667 158.677 106.872 158.147 108.672 158.393C110.477 158.64 111.287 158.64 112.771 158.57C114.255 158.5 114.292 158.324 115.46 158.287C116.627 158.25 117.758 158.217 117.758 158.217C117.758 158.217 115.246 159.063 114.822 159.17C114.399 159.277 112.985 159.593 112.348 159.593C111.71 159.593 111.04 159.733 110.687 160.053C110.333 160.37 108.956 160.973 108.812 161.29C108.672 161.606 108.319 163.093 108.352 163.27C108.389 163.447 109.059 165.46 109.306 165.497C109.552 165.534 122.843 170.76 123.233 170.936C123.624 171.113 124.931 172.386 125.778 172.456C126.625 172.526 133.486 175.143 133.84 175.32C134.193 175.496 137.408 177.403 137.659 177.37C137.905 177.333 142.818 179.843 144.339 179.983C145.86 180.123 146.921 180.299 147.097 179.806C147.274 179.313 147.414 179.063 147.274 178.783C147.134 178.5 146.921 178.077 146.427 177.83C145.934 177.584 144.553 177.37 144.306 177.193C144.059 177.017 143.459 176.556 142.855 176.417C142.251 176.277 137.519 174.227 137.519 174.227L135.361 173.59L132.709 172.423C132.709 172.423 131.258 171.047 130.625 170.973C129.992 170.899 126.349 169.597 126.349 169.597L123.414 168.677L120.056 166.627C120.056 166.627 117.441 166.06 116.981 165.92C116.52 165.78 115.39 165.673 114.683 165.283C113.976 164.893 114.013 165.037 113.162 164.646C112.315 164.256 111.501 164.576 111.287 163.87C111.073 163.163 111.003 162.563 111.324 162.317C111.645 162.07 113.199 161.927 113.199 161.927C113.199 161.927 117.371 161.857 117.371 161.713C117.371 161.573 119.706 160.899 119.916 160.83C120.13 160.76 121.19 160.407 121.86 160.407C122.53 160.407 123.875 159.946 123.875 159.946C123.875 159.946 125.959 161.076 126.489 161.183C127.02 161.29 128.117 161.253 129.141 161.429C130.164 161.606 130.662 161.676 131.685 161.713C132.709 161.75 132.146 162.066 132.709 161.75C133.276 161.434 133.77 161.397 133.877 161.043C133.983 160.69 133.983 160.374 133.983 160.374C134.374 160.234 134.621 160.304 135.007 160.48C135.398 160.657 135.114 160.55 135.677 160.764C136.24 160.978 136.207 161.331 136.738 161.117C137.268 160.904 137.091 161.331 137.268 160.904C137.445 160.476 137.552 160.09 137.692 159.844C137.831 159.597 136.984 159.03 136.947 158.891C136.91 158.751 135.319 157.547 134.966 157.477C134.612 157.407 133.412 156.664 132.845 156.664C132.277 156.664 129.346 155.744 129.1 155.641C128.853 155.534 127.048 154.827 126.978 154.688C126.909 154.548 125.881 154.404 125.704 154.581C125.527 154.758 125.104 155.074 124.997 155.251C124.89 155.427 124.043 155.674 124.75 156.064C125.457 156.454 128.142 157.584 128.393 157.794C128.643 158.003 129.17 158.393 130.3 158.714C131.431 159.03 132.491 159.597 132.491 159.597C132.491 159.597 132.668 159.811 131.961 159.704C131.254 159.597 128.072 159.388 127.649 159.174C127.225 158.96 126.304 158.114 125.741 157.831C125.174 157.547 124.82 157.584 124.01 156.984C123.196 156.384 121.926 155.571 121.712 155.464C121.499 155.357 120.582 155.181 119.698 155.218C118.814 155.255 117.4 155.078 116.516 155.111C115.632 155.148 113.651 155.357 112.874 155.464C112.097 155.571 110.683 155.571 110.259 155.604C109.836 155.637 108.738 155.711 107.891 155.604C107.045 155.497 106.868 155.534 105.77 155.427C104.673 155.32 103.012 155.074 103.012 155.074L104.142 148.858C104.142 148.858 105.519 148.574 106.226 148.718C106.934 148.858 108.738 148.648 109.795 148.365C110.851 148.081 111.879 147.765 113.046 147.551C114.214 147.338 116.792 146.278 117.182 145.822C117.573 145.362 117.642 145.362 118.843 144.976C120.043 144.585 120.434 144.729 121.564 144.552C122.695 144.376 124.602 144.446 125.56 144.515C126.514 144.585 129.096 145.469 129.873 145.715C130.649 145.962 131.924 146.529 132.384 146.705C132.384 146.705 135.213 148.295 135.706 148.542C136.199 148.788 137.474 149.671 137.934 149.992C138.394 150.308 140.018 151.228 140.516 151.582C141.009 151.935 141.4 152.112 142 152.605C142.6 153.098 143.804 153.702 143.907 153.911C144.014 154.125 144.544 154.831 144.931 154.864C145.317 154.897 145.531 155.288 145.815 155.148C146.098 155.008 146.559 154.655 146.838 154.371C147.118 154.088 147.447 153.735 147.319 153.418C147.192 153.102 147.155 152.818 147.155 152.818L152.104 152.358C152.104 152.358 152.281 153.488 153.235 153.772C154.189 154.055 153.905 154.338 154.509 154.125C155.114 153.911 155.993 154.088 155.993 154.088C155.993 154.088 155.64 154.901 155.57 155.008C155.5 155.115 155.04 155.575 154.546 155.575C154.053 155.575 153.449 155.789 153.449 155.789C153.449 155.789 153.309 156.532 153.662 156.812C154.016 157.095 154.123 157.272 154.263 157.342C154.402 157.412 154.653 157.695 154.653 157.695L153.379 160.982C153.379 160.982 152.885 160.628 152.635 160.628C152.384 160.628 151.258 160.275 151.258 160.452C151.258 160.628 150.411 160.912 150.057 161.052C149.704 161.191 149.173 161.265 149.35 161.795C149.527 162.325 148.857 162.609 149.811 162.785C150.764 162.962 150.094 163.139 150.978 162.925C151.862 162.711 151.545 162.609 152.146 162.609C152.746 162.609 152.746 162.609 152.746 162.609L151.155 165.928C151.155 165.928 150.624 166.175 150.271 166.175C149.917 166.175 148.997 166.138 148.857 166.244C148.717 166.351 148.113 167.091 148.187 167.235C148.257 167.374 148.54 167.941 149.177 168.048C149.815 168.155 149.745 168.332 150.238 168.155C150.731 167.978 150.731 167.978 150.731 167.978L149.708 170.488C149.708 170.488 148.787 170.665 148.61 170.772C148.433 170.879 147.763 171.018 147.513 171.302C147.266 171.585 146.912 172.008 147.019 172.222C147.126 172.436 147.373 172.929 147.763 173.068C148.154 173.208 148.54 173.138 148.54 173.138C148.54 173.138 148.363 173.598 148.294 173.738C148.224 173.878 148.08 174.305 147.94 174.761C147.8 175.217 147.656 175.468 147.726 175.891C147.796 176.314 148.043 176.598 148.54 176.774C149.038 176.951 148.754 177.058 149.387 176.951C150.024 176.844 149.987 176.881 150.341 176.491C150.694 176.1 150.871 175.891 151.332 174.901C151.792 173.911 152.429 172.818 152.783 171.828C153.136 170.838 154.727 165.505 154.834 165.328C154.941 165.152 158.049 158.155 158.226 157.876C158.402 157.592 159.286 155.616 159.393 155.119C159.5 154.626 160.03 153.492 160.491 152.539C160.951 151.586 160.774 152.399 161.161 151.019C161.551 149.643 161.761 148.829 161.938 148.229C162.115 147.63 161.938 148.299 162.398 146.956C162.859 145.612 162.859 145.859 163.175 145.082C163.492 144.306 163.636 143.985 163.919 142.925C164.203 141.866 163.956 142.712 164.45 141.266C164.943 139.815 164.766 140.912 165.264 139.322C165.757 137.733 165.971 137.096 166.217 136.673C166.464 136.249 166.924 135.506 166.924 135.506L168.269 132.079C168.269 132.079 168.338 130.843 168.445 130.703C168.552 130.563 169.79 128.937 169.823 128.76C169.86 128.583 170.069 127.486 170.069 127.486L170.423 126.886C170.423 126.886 179.541 126.287 180.285 126.356C181.029 126.426 186.681 126.393 187.249 126.356C187.816 126.32 196.017 125.827 196.227 125.79C196.437 125.753 197.888 125.26 199.656 125.329C201.423 125.399 205.912 124.73 206.229 124.762C206.545 124.799 208.843 124.302 209.62 124.372C210.397 124.442 211.458 124.619 212.942 124.512C214.426 124.405 215.026 124.159 215.84 124.195C216.654 124.232 217.645 124.159 218.315 124.265C218.985 124.372 219.236 124.195 219.339 124.265C219.446 124.335 219.622 124.372 219.622 124.372C219.622 124.372 217.185 129.528 217.078 129.849C216.971 130.165 216.371 132.145 215.84 133.061C215.31 133.982 214.286 135.748 213.826 136.627C213.366 137.511 213.403 137.65 212.872 138.854C212.342 140.054 212.235 140.304 211.672 141.397C211.105 142.494 210.965 142.88 210.397 143.833C209.83 144.787 209.444 145.317 208.876 146.483C208.309 147.65 209.016 146.27 207.602 148.92C206.188 151.569 206.611 151.532 205.727 153.122C204.844 154.712 205.411 153.299 204.136 155.665C202.862 158.032 202.969 157.432 202.439 158.952C201.908 160.472 201.625 161.286 201.625 161.286L197.596 172.095L196.112 173.192L195.898 174.038C195.898 174.038 191.763 174.075 191.446 174.108C191.129 174.145 188.441 174.498 187.911 174.638C187.38 174.778 185.683 174.991 184.873 175.168C184.063 175.344 180.384 175.911 179.96 175.911C179.537 175.911 176.708 175.772 176.071 175.842C175.434 175.911 171.335 176.265 170.558 176.335C169.781 176.404 167.59 176.441 166.916 176.511C166.246 176.581 161.72 177.111 161.227 177.218C160.733 177.325 157.305 177.711 157.128 177.785C156.951 177.855 154.193 178.385 153.946 178.422C153.699 178.459 152.178 178.491 151.508 178.528C150.838 178.565 149.741 178.598 149.601 179.021C149.461 179.445 149.108 180.574 149.284 180.788C149.461 181.002 149.247 181.778 150.308 181.741C151.369 181.704 153.699 181.458 154.09 181.458C154.481 181.458 161.724 180.751 161.724 180.751C161.724 180.751 167.488 180.114 167.804 180.081C168.121 180.044 171.656 179.588 172.01 179.621C172.363 179.658 178.336 179.091 178.76 179.091C179.183 179.091 187.878 177.925 187.878 177.925C187.878 177.925 189.576 177.678 191.166 177.678C192.757 177.678 195.693 177.288 195.902 177.185C196.116 177.078 196.926 176.762 197.316 176.585C197.707 176.409 198.061 176.302 198.377 176.092C198.694 175.879 199.791 173.689 200.038 173.512C200.285 173.336 201.345 169.379 201.592 168.812C201.838 168.245 203.323 165.279 203.466 164.963C203.606 164.646 204.387 162.773 204.667 162.206C204.95 161.639 205.337 160.086 205.727 159.449C206.118 158.812 208.416 155.103 208.519 154.647C208.626 154.186 209.649 151.257 209.97 150.83C210.286 150.407 212.268 147.404 212.408 146.911C212.547 146.418 215.696 139.668 215.766 139.458C215.836 139.244 217.111 136.915 217.497 136.278C217.883 135.641 218.874 133.912 218.874 133.912C218.874 133.912 220.572 129.286 220.856 129.035C221.139 128.785 221.953 127.269 222.056 126.669C222.163 126.069 222.656 124.689 222.656 124.335C222.656 123.982 222.903 122.145 222.656 122.039C222.41 121.932 221.456 121.262 220.852 121.262C220.247 121.262 212.897 121.299 212.897 121.299L207.347 121.406L200.1 121.899C200.1 121.899 195.01 122.076 194.587 122.076C194.163 122.076 188.753 122.606 188.753 122.606C188.753 122.606 184.404 122.922 183.734 122.782C183.064 122.643 176.026 123.735 176.026 123.735C176.026 123.735 173.975 123.772 173.835 123.772C173.695 123.772 172.03 124.089 171.397 124.126C170.764 124.163 168.429 124.869 168.429 124.869C168.429 124.869 166.061 128.612 166.094 128.719C166.131 128.826 164.326 133.628 164.326 133.772C164.326 133.912 162.628 137.412 162.628 137.412L162.168 138.895C162.168 138.895 161.708 138.965 161.037 138.612C160.367 138.258 160.437 137.905 159.34 137.622C158.242 137.338 155.274 136.171 154.814 136.102C154.353 136.032 156.088 135.962 153.469 136.032C150.855 136.101 150.855 136.102 150.855 136.102L147.426 136.455C147.426 136.455 145.552 136.771 145.268 136.845C144.984 136.915 143.747 137.129 142.793 137.338C141.839 137.552 140.988 137.938 140.355 137.975C139.722 138.012 138.374 138.682 138.374 138.682C138.374 138.682 137.704 138.965 137.667 139.105C137.63 139.244 137.453 139.635 137.597 139.848C137.737 140.062 137.206 140.555 138.551 140.271C139.895 139.988 140.281 139.848 140.742 139.705C141.202 139.565 142.296 139.388 143.11 139.351C143.924 139.314 145.301 138.998 145.901 138.961C146.501 138.924 147.492 138.784 148.092 138.747C148.692 138.71 149.646 138.608 150.176 138.608C150.707 138.608 151.981 138.538 152.865 138.538C153.749 138.538 155.73 139.105 156.01 139.175C156.293 139.244 157.741 140.021 158.271 140.165C158.801 140.304 158.978 140.871 159.545 141.011C160.113 141.151 160.713 141.364 160.783 141.471C160.852 141.578 160.039 143.981 160.039 143.981C160.039 143.981 159.294 143.414 159.192 143.414C159.085 143.414 158.945 143.345 158.591 143.451C158.238 143.558 157.815 143.911 157.815 143.911C157.815 143.911 157.461 144.655 157.745 145.041C158.028 145.432 158.098 145.748 158.275 145.962C158.452 146.175 158.628 146.808 158.628 146.985C158.628 147.161 158.698 147.905 158.559 148.361C158.419 148.821 157.815 149.811 157.815 149.811C157.815 149.811 157.498 147.198 157.424 146.948C157.35 146.697 156.857 145.641 156.787 145.358C156.717 145.074 156.54 144.228 156.326 144.014C156.113 143.801 155.866 143.731 155.303 143.907C154.735 144.084 154.102 144.047 154.065 144.224C154.028 144.4 154.205 145.177 154.279 145.637C154.349 146.097 154.563 148.5 154.526 148.817C154.489 149.133 154.349 149.877 154.349 149.877C154.349 149.877 153.856 149.984 153.679 149.487C153.502 148.993 153.819 148.92 153.432 148.287C153.046 147.654 153.539 147.687 153.009 146.767C152.479 145.847 152.265 146.097 152.265 145.354C152.265 144.61 151.841 144.257 151.274 144.294C150.707 144.331 149.93 144.507 149.93 144.754C149.93 145 149.967 145.674 150.246 146.45C150.53 147.227 151.13 149.277 151.237 149.417C151.344 149.556 151.521 150.3 151.521 150.3C151.521 150.3 150.07 150.3 149.293 150.514C148.516 150.727 146.958 150.76 146.534 150.867C146.111 150.974 145.26 151.15 145.12 151.15C144.98 151.15 144.836 151.364 144.413 151.113C143.989 150.863 141.268 148.747 141.268 148.747L146.004 147.334C146.004 147.334 147.911 146.734 148.018 146.167C148.125 145.6 148.158 145.777 148.265 145.07C148.372 144.363 148.265 144.647 148.442 143.973C148.618 143.299 148.902 143.02 148.442 142.876C147.981 142.736 147.874 142.663 147.274 142.663C146.674 142.663 144.236 142.626 144.236 142.626C144.236 142.626 142.752 142.909 142.538 142.942C142.325 142.975 140.277 143.295 140.101 143.332C139.924 143.369 138.547 143.686 138.44 143.755C138.333 143.825 138.263 144.532 138.37 144.815C138.477 145.099 138.44 145.308 139.254 145.308C140.068 145.308 141.412 144.992 142.222 144.992C143.032 144.992 142.505 145.029 143.566 144.992C144.627 144.955 145.617 144.885 145.617 144.885C145.617 144.885 144.947 145.522 144.734 145.592C144.52 145.662 143.92 145.875 143.533 146.015C143.143 146.155 142.612 146.261 142.259 146.331C141.905 146.401 140.705 146.438 140.491 146.545C140.277 146.652 139.467 147.145 139.04 147.215C138.616 147.284 138.616 147.284 138.616 147.284C138.616 147.284 136.318 145.518 136.035 145.481C135.751 145.444 133.737 144.951 133.667 144.774C133.597 144.598 133.03 143.891 133.03 143.891C133.03 143.891 134.374 141.418 134.481 141.311C134.588 141.204 135.295 140.111 135.578 139.828C135.862 139.544 136.569 138.521 136.569 138.238C136.569 137.954 136.286 136.788 136.076 136.788C135.866 136.788 134.945 136.964 134.522 136.751C134.099 136.537 132.261 136.327 132.261 136.327C132.261 136.327 129.046 136.29 128.832 136.29C128.619 136.29 125.79 136.114 125.474 136.044C125.157 135.974 123.599 135.904 123.599 135.904C123.599 135.904 123.492 127.002 123.669 126.155C123.846 125.309 124.13 123.152 124.13 123.152C124.13 123.152 124.306 121.209 124.343 120.962C124.38 120.716 124.306 119.902 124.45 118.912C124.59 117.922 124.52 118.452 124.734 116.225C124.948 113.999 124.911 113.045 124.948 112.269C124.985 111.492 124.948 111.102 124.985 109.833C125.022 108.559 125.124 108.313 125.198 107.359C125.268 106.406 125.235 105.63 125.305 104.147C125.375 102.664 125.375 101.743 125.375 101.743C125.375 101.743 125.515 100.367 125.515 98.6333C125.515 96.9037 125.552 95.8068 125.515 94.9605C125.478 94.1141 125.445 93.8307 125.515 92.8036C125.585 91.7806 124.417 87.7873 124.417 87.7873L122.436 85.9508C122.436 85.9508 117.462 81.633 117.351 81.5179C117.24 81.407 116.343 80.3224 115.895 80.1006C115.447 79.8787 114.851 78.8311 114.44 78.7571C114.029 78.6832 113.618 78.3833 112.948 78.0464C112.278 77.7095 112.294 77.7095 111.464 77.1138C110.633 76.5181 109.359 75.7046 109.359 75.7046L107.756 75.2897C107.756 75.2897 106.79 75.7745 106.749 76.2592C106.707 76.744 107.345 78.4983 107.497 78.7201C107.645 78.942 107.945 79.6158 108.319 80.1375C108.693 80.6593 109.363 81.6289 109.515 81.8918C109.667 82.1547 109.663 84.2418 109.663 84.2418L108.097 87.0396C108.097 87.0396 107.09 88.4569 106.864 88.6418C106.642 88.8267 106.041 89.6484 105.893 89.9113C105.745 90.1742 105.93 89.3895 105.26 90.8439C104.59 92.2982 104.849 91.2917 104.438 93.046C104.027 94.8002 104.101 95.2111 103.879 96.7024C103.657 98.1937 103.657 98.0088 103.505 99.3893C103.357 100.77 103.768 100.844 103.168 102.746C102.572 104.648 102.383 105.059 102.309 105.806C102.235 106.554 102.309 107.076 102.235 107.487C102.161 107.898 102.087 108.645 102.087 108.645C102.087 108.645 99.6983 121.517 99.6983 121.78C99.6983 122.043 99.0652 125.025 99.0652 125.025L98.317 128.086C98.317 128.086 97.4578 130.884 97.4578 131.11C97.4578 131.332 97.3468 132.901 97.3468 132.901L96.8987 133.349C96.8987 133.349 95.1064 123.686 95.0694 123.538C95.0324 123.39 94.7693 121.71 94.6213 121.151C94.4733 120.592 94.3993 119.36 94.0622 118.464C93.7251 117.569 94.1732 116.414 93.7251 115.74C93.277 115.067 91.8218 110.182 91.8588 109.845C91.8957 109.508 91.7847 107.754 91.7847 107.754C91.7847 107.754 91.1887 105.404 91.1147 104.73C91.0407 104.06 90.7406 103.461 90.5186 101.858C90.2966 100.256 90.1075 99.6933 89.8485 98.9497C89.5854 98.2019 89.1003 94.0238 88.7303 93.465C88.3562 92.9063 87.9821 92.0107 87.9451 91.4889C87.9081 90.9671 88.0931 90.8932 87.7232 90.1455C87.3491 89.3977 87.0901 87.6846 86.864 87.1217C86.642 86.563 86.1939 85.4414 86.2309 84.6608C86.2679 83.8761 86.2309 83.3544 86.4159 83.0586C86.6009 82.7587 87.3491 81.9411 87.8711 81.1564C88.3932 80.3717 88.2822 80.1868 89.0304 79.813C89.7786 79.4391 90.5597 79.0283 90.5597 79.0283C90.5597 79.0283 91.0818 79.587 91.2298 79.813C91.3778 80.0348 92.6481 80.3717 92.759 80.4457C92.87 80.5196 93.3181 80.9674 93.2071 81.5631C93.0961 82.1588 93.2071 82.6683 93.0221 83.3831C92.8371 84.098 92.722 85.6263 92.8001 86.0371C92.8741 86.448 92.6891 86.7479 93.2482 87.1176C93.8073 87.4915 95.2626 88.6089 95.5997 89.1677C95.9368 89.7264 96.4219 90.5111 96.4959 90.9959C96.5699 91.4807 96.796 93.0871 96.6809 93.4938C96.5699 93.9046 96.2698 94.7263 96.4959 94.9481C96.7179 95.17 98.1402 96.3285 98.2512 96.2546C98.3622 96.1806 99.5585 95.4699 99.6695 94.8002C99.7805 94.1306 99.8175 92.3393 99.8175 92.0394C99.8175 91.7395 99.6695 90.696 99.3694 90.1373C99.0693 89.5785 97.3551 87.0026 97.24 86.9286C97.129 86.8547 95.5216 85.8851 95.5216 85.8851L95.5956 84.9895C95.5956 84.9895 96.3808 82.8983 96.3808 82.6025C96.3808 82.3067 96.6028 82.1547 96.4178 81.407C96.2328 80.6593 95.9697 80.1827 95.7477 79.6199C95.5257 79.057 94.9625 78.4613 94.5884 78.2723C94.2143 78.0875 93.0961 77.9724 92.648 77.4876C92.2 77.0028 91.9369 76.7399 91.8259 76.5181C91.7149 76.2962 91.3778 75.4745 91.3778 75.3595C91.3778 75.2445 89.6594 71.4812 89.6964 70.8444C89.7334 70.2117 89.2113 69.3284 89.2483 68.7451C89.2853 68.1576 89.4333 67.151 89.4333 67.151L90.3295 65.5077C90.3295 65.5077 93.9882 60.8817 94.2102 60.5078C94.4322 60.134 95.7395 58.1537 95.9286 57.8579C96.1136 57.5621 96.7138 56.7035 96.7508 56.0667C96.7878 55.434 96.8617 54.2303 96.9357 53.6387C97.0097 53.0471 96.3767 51.3298 96.1136 50.845C95.8505 50.3602 94.8433 48.421 94.6583 48.1211C94.4733 47.8212 94.1362 46.3669 94.0622 46.182C93.9882 45.9971 94.0992 44.5797 94.0252 43.906C93.9512 43.2363 93.8772 42.3037 94.1732 41.6299C94.4733 40.9603 95.1804 39.8387 95.5545 39.5388C95.9286 39.2389 97.7949 38.3802 98.169 38.2323C98.5431 38.0844 99.8134 37.5627 99.8134 37.5627L99.8874 36.704L99.3653 36.1658H98.6089V36.1946Z" fill="#2F3033"/>
<path d="M105.437 82.2862C105.885 82.3601 106.781 82.2862 106.855 82.508C106.929 82.7299 106.966 83.4037 106.855 83.7405C106.744 84.0774 106.255 85.121 106.181 85.3058C106.107 85.4907 104.8 87.6928 104.726 87.8448C104.652 87.9927 104.315 88.9253 104.167 89.2622C104.019 89.5991 103.04 90.2687 103.04 90.2687C103.04 90.2687 101.667 90.3057 101.478 90.0058C101.293 89.7059 100.656 89.8948 101.104 88.9992C101.552 88.1036 101.737 87.3189 102.074 86.9492C102.411 86.5753 102.506 86.7643 103.036 85.8687C103.567 84.9731 104.163 82.4382 104.237 82.2862C104.319 82.1383 105.437 82.2862 105.437 82.2862Z" fill="#2F3033"/>
<path d="M89.758 82.9969C89.758 82.9969 90.0951 83.1695 90.3171 83.3996C90.5391 83.6296 90.7282 84.2253 90.6172 84.5622C90.5062 84.8991 90.5391 85.5688 90.2061 85.6427C89.8731 85.7167 89.3881 85.8646 88.903 85.6427C88.4179 85.4209 88.1178 85.2689 88.1548 84.7101C88.1918 84.1514 87.9246 83.5023 88.1507 83.3996C88.3768 83.2968 88.3398 82.923 88.8989 82.697C89.4579 82.4752 89.5319 82.0274 89.6471 82.5121C89.7622 82.9969 89.758 82.9969 89.758 82.9969Z" fill="#2F3033"/>
<path d="M97.8607 100.679C98.0827 100.901 98.4198 100.901 98.6459 101.39C98.8679 101.875 99.2049 102.212 99.057 102.623C98.909 103.033 99.057 103.292 98.4773 103.444C97.8977 103.592 97.7127 103.518 97.2646 103.444C96.8165 103.37 96.2574 102.996 96.2204 102.623C96.1834 102.249 95.9203 102.064 96.2204 101.653C96.5205 101.242 96.4424 101.205 96.7425 101.057C97.0385 100.905 97.8607 100.679 97.8607 100.679Z" fill="#2F3033"/>
<path d="M130.214 151.36C131.62 151.964 132.947 152.527 133.391 152.765C133.835 153.007 135.122 154.092 135.681 154.532C136.244 154.975 137.531 155.616 138.012 155.9C138.493 156.179 140.384 157.346 140.746 157.707C141.108 158.069 141.753 158.673 141.63 158.952C141.511 159.232 141.387 159.959 140.865 160.078C140.343 160.197 139.981 160.48 139.097 159.798C138.214 159.116 137.49 158.915 137.046 158.43C136.602 157.95 136.24 157.748 135.599 157.305C134.958 156.861 132.623 155.575 132.462 155.378C132.302 155.181 130.292 154.371 129.77 154.051C129.248 153.73 127.463 152.646 127.41 152.321C127.357 152.001 128.405 151.639 128.483 151.516C128.565 151.401 130.214 151.36 130.214 151.36Z" fill="#2F3033"/>
<path d="M130.937 149.873C130.937 149.873 133.067 151.319 133.35 151.36C133.634 151.401 135.965 152.925 136.286 153.007C136.606 153.09 138.658 154.174 138.777 154.293C138.896 154.412 139.981 155.259 140.466 155.801C140.947 156.343 141.309 156.787 141.996 157.149C142.678 157.51 142.962 157.551 143.443 157.391C143.924 157.231 144.487 157.112 144.487 156.627C144.487 156.142 143.562 154.86 143.521 154.737C143.48 154.618 139.381 151.923 139.299 151.804C139.217 151.684 137.893 150.6 137.712 150.518C137.531 150.436 136.125 149.675 135.278 149.351C134.436 149.03 134.436 149.15 133.951 148.829C133.47 148.509 132.705 148.188 132.22 148.385C131.739 148.587 131.213 149.109 131.213 149.109L130.937 149.873Z" fill="#2F3033"/>
<path d="M148.672 156.545C149.276 156.425 150.402 155.941 150.925 156.023C151.447 156.105 152.17 156.224 152.655 156.545C153.136 156.865 153.099 157.51 152.935 157.789C152.77 158.069 152.331 158.714 151.73 158.755C151.126 158.796 150.242 158.956 150.082 158.956C149.922 158.956 150.082 158.915 149.075 158.956C148.067 158.997 147.385 158.956 147.184 158.315C146.982 157.674 147.023 156.988 147.184 156.787C147.344 156.586 148.672 156.545 148.672 156.545Z" fill="#2F3033"/>
<path d="M122.818 162.933C123.221 162.913 124.064 162.892 124.746 162.933C125.429 162.974 126.395 163.134 126.395 163.414C126.395 163.693 126.312 164.137 126.074 164.219C125.836 164.301 125.47 164.26 125.35 164.461C125.231 164.663 125.03 165.505 124.907 165.505C124.783 165.505 123.579 165.464 123.139 165.505C122.695 165.546 122.534 165.665 121.971 165.505C121.408 165.345 121.651 165.423 121.248 165.304C120.845 165.185 120.565 165.345 120.442 164.983C120.319 164.622 120.401 165.024 120.323 164.622C120.241 164.219 120.162 163.816 120.483 163.697C120.804 163.578 121.005 163.176 121.449 163.093C121.893 163.011 121.531 162.872 122.173 162.904C122.818 162.933 122.296 162.962 122.818 162.933Z" fill="#2F3033"/>
<path d="M138.699 164.018C138.337 164.059 137.613 164.264 137.371 164.244C137.128 164.219 136.125 164.42 136.125 164.42C135.443 164.823 135.361 164.942 135.361 165.102C135.361 165.263 134.797 165.825 135.361 166.068C135.924 166.31 135.562 166.511 136.405 166.429C137.247 166.347 136.767 166.544 137.893 166.446C139.019 166.347 138.818 166.68 139.299 166.475C139.78 166.269 140.183 165.788 140.183 165.587C140.183 165.386 140.544 165.427 140.183 164.864C139.821 164.301 139.62 164.429 139.418 164.244C139.221 164.059 138.699 164.018 138.699 164.018Z" fill="#2F3033"/>
<path d="M130.937 165.283C131.459 165.308 131.459 165.164 132.306 165.435C133.153 165.706 133.149 165.83 133.391 166.109C133.634 166.388 133.309 166.873 133.391 166.992C133.474 167.111 133.474 167.395 132.668 167.436C131.862 167.477 130.255 167.917 129.33 167.839C128.405 167.756 128.125 167.839 127.883 167.436C127.64 167.033 127.681 166.811 127.883 166.561C128.084 166.31 128.286 165.908 128.405 165.871C128.524 165.825 130.415 165.258 130.937 165.283Z" fill="#2F3033"/>
<path d="M142.76 167.637C142.76 167.637 143.443 167.395 143.726 167.358C144.006 167.317 144.289 166.914 144.692 167.037C145.095 167.157 146.098 167.329 146.098 167.329C146.098 167.329 146.419 167.76 146.378 168.245C146.337 168.726 146.74 168.968 146.218 169.33C145.695 169.691 145.856 169.65 145.494 169.774C145.132 169.893 144.207 169.774 144.207 169.774C144.207 169.774 142.518 169.252 142.357 169.133C142.197 169.013 142.078 168.853 142.037 168.73C141.996 168.611 141.996 168.41 142.037 168.286C142.078 168.159 142.76 167.637 142.76 167.637Z" fill="#2F3033"/>
<path d="M135.11 169.203C135.681 168.882 136.647 168.43 137.009 168.414C137.371 168.397 137.572 168.159 138.135 168.159C138.699 168.159 138.74 167.917 139.143 168.159C139.546 168.401 140.388 168.64 140.347 168.882C140.306 169.124 140.627 169.634 140.507 169.819C140.388 170.008 140.627 170.447 139.903 170.649C139.18 170.85 139.299 170.85 138.896 170.969C138.493 171.088 138.07 171.051 137.819 171.249C137.568 171.446 137.289 171.129 136.684 171.249C136.08 171.368 136.121 171.585 135.759 171.318C135.398 171.051 135.418 170.768 135.106 170.488C134.793 170.209 134.711 170.234 134.711 169.819C134.719 169.404 135.11 169.203 135.11 169.203Z" fill="#2F3033"/>
<path d="M142.838 163.738C142.756 163.981 142.838 164.823 142.838 164.823C142.838 164.823 142.756 165.345 143.644 165.263C144.528 165.184 144.368 165.102 145.05 165.02C145.732 164.938 145.934 164.819 146.296 164.741C146.657 164.663 146.666 164.548 147.044 164.502C147.422 164.457 147.702 164.507 147.903 164.24C148.104 163.977 148.347 164.375 148.146 163.734C147.944 163.093 148.306 163.011 147.903 162.691C147.5 162.37 147.044 161.968 147.044 161.968C147.044 161.968 145.811 162.288 145.51 162.247C145.21 162.206 145.087 162.448 144.688 162.448C144.285 162.448 143.924 162.567 143.562 162.609C143.2 162.65 142.801 163.089 142.801 163.089L142.838 163.738Z" fill="#2F3033"/>
<path d="M143.965 172.214C144.569 172.132 144.771 172.296 145.21 172.214C145.654 172.132 145.852 172.255 146.016 172.534C146.176 172.814 146.489 173.578 146.489 173.578C146.489 173.578 145.815 174.219 145.334 174.42C144.853 174.621 145.173 174.461 144.853 174.621C144.532 174.782 143.887 174.782 143.726 174.823C143.566 174.864 143.447 174.782 143.122 174.823C142.801 174.864 142.6 175.024 142.357 174.662C142.115 174.301 142.337 174.58 142.004 174.1C141.671 173.619 141.552 174.017 141.671 173.619C141.79 173.216 141.572 173.015 142.004 172.855C142.436 172.695 143.36 172.296 143.965 172.214Z" fill="#2F3033"/>
<path d="M161.592 54.1974C161.592 53.6551 161.432 53.0224 161.338 52.6239C161.243 52.2254 160.988 51.4325 160.795 50.6683C160.606 49.9042 160.478 47.6816 160.478 47.6816C160.478 47.6816 160.733 45.233 160.766 44.6291C160.799 44.0251 160.861 43.5157 161.181 42.5297C161.498 41.5437 161.753 40.8781 162.008 40.2742C162.263 39.6703 162.706 39.0992 162.867 38.8116C163.027 38.524 163.821 37.0327 164.137 36.7123C164.454 36.3918 166.045 35.4715 166.427 35.377C166.809 35.2826 168.655 35.2168 168.91 35.2168C169.165 35.2168 170.912 35.9152 171.039 35.981C171.167 36.0426 172.153 36.6178 172.918 37.2217C173.683 37.8256 173.777 38.4296 174.127 39.0663C174.476 39.7031 175.113 41.0384 175.274 41.3218C175.434 41.6094 176.038 43.5157 176.038 43.5157C176.038 43.5157 176.1 43.3555 176.643 42.657C177.185 41.9586 178.011 41.2273 178.011 41.2273C178.011 41.2273 179.282 39.7976 179.537 39.4156C179.792 39.0335 180.203 38.5241 180.363 38.3679C180.523 38.2077 181.382 37.1929 181.666 36.9382C181.95 36.6835 182.653 36.2727 183.224 36.0467C183.796 35.8249 184.433 35.3812 184.593 35.2826C184.753 35.1881 186.246 35.0278 186.661 34.9662C187.076 34.9046 188.157 35.1552 188.951 35.2209C189.744 35.2826 190.348 35.4756 190.924 35.7632C191.495 36.0508 191.75 36.2398 192.227 36.8437C192.704 37.4477 192.704 37.7353 193.053 38.0845C193.403 38.4337 194.073 40.5947 194.135 41.4862C194.196 42.3777 194.196 42.123 194.102 43.7129C194.007 45.3028 193.974 44.8263 193.752 46.2888C193.53 47.7514 193.592 47.3693 193.181 48.3225C192.766 49.2756 192.416 50.0726 192.416 50.0726C192.416 50.0726 191.906 51.3421 191.717 51.5352C191.528 51.7242 191.146 52.5212 191.018 52.7102C190.891 52.8992 188.535 57.065 188.535 57.065C188.535 57.065 195.725 57.669 196.137 57.669C196.552 57.669 197.789 57.9566 197.789 57.9566C197.789 57.9566 199.092 58.0839 199.253 58.1414C199.413 58.1989 199.762 58.8768 199.795 59.1644C199.828 59.452 199.413 59.8012 199.158 60.0231C198.903 60.2449 198.554 60.2778 198.139 60.2778C197.723 60.2778 197.312 60.2778 196.77 60.2162C196.227 60.1545 195.623 60.1833 195.018 60.1217C194.414 60.06 193.078 60.0888 192.219 60.06C191.36 60.0272 189.736 59.8998 189.736 59.8998C189.736 59.8998 186.809 59.4849 186.205 59.678C185.6 59.8669 186.044 59.8053 185.888 60.3147C185.728 60.8242 185.539 61.0132 185.317 61.3007C185.095 61.5883 185.062 61.6171 184.363 62.2334C183.664 62.8455 184.013 62.5743 183.598 63.018C183.183 63.4618 183.154 63.4946 182.805 63.9383C182.455 64.382 182.201 65.0517 182.04 65.368C181.88 65.6844 179.368 67.944 179.146 68.0713C178.924 68.1987 178.287 68.4205 177.999 68.5807C177.711 68.741 177.362 69.5668 177.362 69.5668C177.362 69.5668 175.676 70.2652 175.2 70.298C174.723 70.3309 174.912 70.298 173.958 70.1091C173.004 69.9201 173.259 69.9488 172.207 69.0902C171.159 68.2315 171.413 68.7738 170.743 68.1371C170.077 67.5003 169.823 67.4058 169.629 67.1511C169.436 66.8963 168.676 65.9761 168.421 65.783C168.166 65.594 166.735 63.8767 166.542 63.7493C166.353 63.622 163.455 59.5218 163.171 59.1069C162.883 58.6919 162.694 58.1866 162.534 57.8045C162.373 57.4225 162.312 57.0568 162.312 57.0568C162.312 57.0568 162.09 57.0116 161.835 57.0445C161.58 57.0774 161.325 57.0445 160.437 57.0445C159.549 57.0445 159.866 57.0445 157.383 56.6953C154.9 56.3461 156.174 56.6008 155.537 56.5063C154.9 56.4118 154.994 56.3789 154.296 56.2187C153.597 56.0585 153.852 55.9969 153.087 55.6148C152.322 55.2327 152.865 55.1054 152.799 54.8137C152.737 54.522 153.087 54.4357 153.149 54.3412C153.21 54.2467 153.498 54.2138 153.88 54.181C154.263 54.1481 154.452 54.1481 155.027 54.181C155.599 54.2138 155.344 54.2138 156.174 54.3412C157.001 54.4686 157.416 54.5302 157.798 54.5302C158.18 54.5302 158.147 54.5918 158.785 54.752C159.422 54.9123 160.055 54.6904 160.31 54.752C160.565 54.8137 161.424 54.752 161.58 54.752C161.592 54.7397 161.592 54.7397 161.592 54.1974ZM171.167 39.8305C170.879 39.7689 170.624 39.0376 170.373 38.7171C170.118 38.4008 169.864 38.0516 169.642 37.9859C169.42 37.9201 168.91 37.7311 168.211 37.4436C167.512 37.156 167.224 37.4436 167.224 37.4436C167.224 37.4436 165.633 38.5898 165.506 38.7459C165.379 38.9061 165.317 39.4114 165.062 39.7935C164.807 40.1756 164.807 40.4591 164.713 40.9685C164.618 41.478 164.396 42.3366 164.33 42.9077C164.269 43.4787 164.043 43.9882 163.981 44.5305C163.919 45.0728 163.886 45.9602 163.878 46.6298C163.87 47.2954 163.821 48.9182 163.886 49.1113C163.948 49.3003 163.853 50.6683 163.886 51.716C163.919 52.7636 164.585 54.5466 164.585 54.5466C164.585 54.5466 165.095 53.5277 165.128 53.4333C165.161 53.3388 165.987 51.8105 166.114 51.527C166.242 51.2394 167.261 49.6823 167.261 49.6823C167.261 49.6823 168.248 47.7761 168.437 47.6158C168.626 47.4556 169.835 47.2009 170.09 47.2009C170.345 47.2009 170.694 47.4885 170.982 47.583C171.27 47.6775 171.171 48.4087 171.265 49.1072C171.36 49.8056 171.265 50.9189 171.265 51.1737C171.265 51.4284 171.298 52.8581 171.265 53.0799C171.233 53.3018 172.125 57.4019 172.125 57.4019C172.125 57.4019 172.507 56.7035 172.791 56.2269C173.078 55.7504 173.555 54.3494 173.683 54.0659C173.81 53.7784 174.349 52.6979 174.669 52.2542C174.99 51.8105 175.434 52.0939 175.94 52.0652C176.445 52.0364 176.606 52.2542 176.606 52.2542C176.606 52.2542 176.7 53.2073 176.638 53.4949C176.577 53.7825 177.181 55.7216 177.181 55.7216C177.181 55.7216 177.563 55.1177 177.847 54.5754C178.135 54.0331 178.579 53.4949 178.673 53.2402C178.768 52.9854 179.533 51.0463 179.627 50.5081C179.722 49.9658 180.326 49.14 180.486 48.9839C180.647 48.8237 181.917 48.4129 182.299 48.2526C182.682 48.0924 183.413 48.5073 183.508 48.6963C183.602 48.8853 183.541 49.7152 183.541 50.4752C183.541 51.2353 183.541 51.5557 183.508 52.1925C183.475 52.8293 183.475 53.084 183.446 53.6222C183.413 54.1645 183.413 54.6082 183.413 54.9903C183.413 55.3724 183.446 56.2927 183.475 56.42C183.508 56.5474 184.301 56.7692 184.462 56.7692C184.622 56.7692 184.971 56.609 185.128 56.4817C185.288 56.3543 185.954 55.3683 185.954 55.3683L187.035 53.3018C187.035 53.3018 187.672 52.1268 187.927 51.6174C188.182 51.1079 188.626 50.3479 188.914 49.8384C189.201 49.329 189.58 48.569 189.645 48.2814C189.707 47.9938 190.25 46.2477 190.377 45.8328C190.505 45.4179 191.043 43.7334 191.043 43.7334C191.043 43.7334 191.01 42.2709 190.854 41.6669C190.698 41.063 190.566 39.4115 190.122 38.5199C189.678 37.6284 189.329 37.8215 189.008 37.6613C188.688 37.5011 187.162 37.4723 186.78 37.4394C186.398 37.4066 184.396 38.1707 184.396 38.1707C184.396 38.1707 183.73 38.8691 183.475 39.1567C183.22 39.4443 181.119 41.0343 180.836 41.5724C180.552 42.1106 180.392 42.3982 180.137 42.8132C179.882 43.2281 178.99 44.6907 178.291 45.611C177.592 46.5312 177.625 46.4367 177.399 46.7572C177.177 47.0735 175.841 48.4745 175.648 48.6347C175.459 48.7949 174.312 48.5402 174.024 48.1581C173.736 47.7761 174.024 46.9831 174.024 46.9831C174.024 46.9831 173.609 45.2659 173.58 44.9495C173.547 44.6332 172.976 43.7088 172.976 43.5198C172.976 43.3308 172.433 41.9299 172.404 41.8025C172.371 41.6752 171.512 40.0523 171.45 39.8962C171.45 39.8921 171.45 39.8921 171.167 39.8305ZM165.535 57.4101C165.535 57.4101 165.535 57.8867 165.79 58.1373C166.045 58.3879 166.998 59.7971 166.998 59.7971C166.998 59.7971 167.763 60.9105 168.145 61.4487C168.528 61.991 168.811 62.6236 169.037 62.9441C169.259 63.2604 170.501 64.5957 170.501 64.5957L172.569 66.0911L174.604 67.4879C174.604 67.4879 175.302 67.3277 175.496 67.2332C175.685 67.1387 177.021 65.9637 177.119 65.898C177.214 65.8364 178.583 64.1478 178.583 64.1478C178.583 64.1478 180.046 62.8455 180.778 61.9868C181.51 61.1282 182.908 59.5383 183.228 59.2548C183.545 58.9672 183.228 59.2548 183.101 59.1603C182.973 59.0658 182.336 58.8111 182.18 58.7454C182.02 58.6837 181.354 58.618 181.259 58.5564C181.165 58.4947 180.782 57.6361 180.622 57.254C180.462 56.8719 180.622 55.6312 180.622 55.6312C180.622 55.6312 180.272 56.3625 180.178 56.6501C180.083 56.9377 179.413 57.6032 179.352 57.7306C179.29 57.8579 179.163 58.1127 179.002 58.4947C178.842 58.8768 178.587 59.2589 178.209 59.7355C177.826 60.212 177.255 60.3723 176.252 60.401C175.249 60.4298 175.311 59.4808 175.121 59.3822C174.932 59.2836 174.805 57.4101 174.805 57.4101C174.805 57.4101 174.645 58.0141 174.583 58.3304C174.521 58.6468 174.488 58.7454 173.946 59.6328C173.403 60.5243 173.724 59.982 173.181 60.9351C172.639 61.8882 172.959 61.3501 172.577 61.8883C172.195 62.4306 172.26 62.0156 171.241 61.8883C170.221 61.7609 170.349 61.3459 170.16 61.157C169.97 60.968 169.843 60.2983 169.395 58.996C168.951 57.6936 169.235 57.821 169.235 57.2458C169.235 56.6747 169.013 54.9246 168.98 54.2549C168.947 53.5853 168.852 51.8721 168.725 51.6174C168.597 51.3627 168.725 51.6174 168.536 52.2829C168.347 52.9485 168.219 52.8868 168.026 53.7784C167.837 54.6699 167.483 55.3026 167.327 55.7175C167.167 56.1324 166.756 56.4159 166.628 56.5104C166.501 56.6049 165.547 56.987 165.547 56.987V57.4101H165.535Z" fill="#2F3033"/>
<path d="M177.05 76.5756C177.592 76.8631 178.418 76.9576 178.546 77.2411C178.673 77.5287 178.64 78.0669 178.735 78.449C178.83 78.831 179.212 79.8787 179.212 80.0389C179.212 80.1991 178.99 80.8975 178.99 80.8975C178.99 80.8975 178.64 80.9592 178.131 80.8975C177.621 80.8359 177.177 80.992 176.762 80.5155C176.347 80.0389 176.384 80.4826 176.24 79.5295C176.096 78.5763 175.968 78.0998 176.096 77.7505C176.223 77.4013 176.351 77.0521 176.54 76.9248C176.733 76.7974 177.05 76.5756 177.05 76.5756Z" fill="#2F3033"/>
<path d="M179.212 91.2958C179.627 91.5505 180.388 91.7107 180.675 91.9942C180.963 92.2818 181.091 92.5653 181.058 92.9145C181.025 93.2637 180.811 93.6786 181.062 94.0278C181.313 94.377 181.502 94.3442 181.374 94.7263C181.247 95.1083 180.992 95.4575 180.581 95.3918C180.17 95.3261 179.689 95.2973 179.405 95.17C179.121 95.0426 178.99 95.3918 178.834 94.566C178.673 93.7403 178.772 94.1306 178.645 93.3459C178.517 92.5653 178.423 91.9901 178.455 91.8956C178.488 91.8011 178.805 91.4519 178.805 91.4519L179.212 91.2958Z" fill="#2F3033"/>
<path d="M180.963 106.776C180.963 106.776 181.695 106.554 181.917 106.776C182.139 106.998 182.139 107.191 182.332 107.569C182.525 107.947 182.649 108.235 182.747 108.489C182.842 108.744 183.064 108.777 183.064 109.253C183.064 109.73 183.002 109.985 182.747 110.145C182.492 110.305 181.81 110.527 181.419 110.334C181.029 110.145 180.236 109.89 180.137 109.381C180.038 108.871 179.82 109.126 179.931 107.918C180.042 106.71 179.849 106.838 180.042 106.71C180.231 106.583 180.963 106.776 180.963 106.776Z" fill="#2F3033"/>
<path d="M185.481 118.185C185.703 118.218 186.213 118.345 186.69 118.756C187.167 119.171 187.582 119.327 187.582 119.648C187.582 119.968 187.549 120.219 187.265 120.412C186.977 120.601 186.472 121.048 186.057 120.761C185.641 120.473 184.659 120.251 184.56 119.935C184.466 119.619 184.305 119.553 184.338 119.076C184.371 118.6 183.981 118.6 184.334 118.378C184.688 118.156 184.782 117.869 185.132 118.029C185.481 118.185 185.481 118.185 185.481 118.185Z" fill="#2F3033"/>
<path d="M201.415 113.165C201.32 113.386 200.079 114.278 200.046 114.467C200.013 114.656 199.73 115.104 199.886 115.293C200.046 115.482 199.947 115.769 200.268 115.991C200.585 116.213 200.523 116.562 200.905 116.533C201.288 116.501 201.349 116.599 201.637 116.533C201.925 116.468 201.797 116.468 202.208 116.279C202.62 116.09 202.846 115.835 203.002 115.547C203.162 115.26 203.224 115.19 203.257 114.861C203.29 114.533 203.351 114.911 203.257 114.245C203.162 113.58 203.351 113.863 203.162 113.58C202.973 113.296 202.558 113.292 202.369 113.165C202.18 113.037 202.019 113.004 201.859 113.004C201.703 113.004 201.415 113.165 201.415 113.165Z" fill="#2F3033"/>
<path d="M211.881 97.142C212.136 97.5569 212.358 98.5388 212.519 98.7319C212.679 98.9209 212.297 99.4303 212.202 99.9069C212.108 100.383 211.565 100.926 211.409 101.082C211.248 101.242 210.71 101.526 210.455 101.271C210.2 101.016 209.662 100.983 209.563 100.478C209.464 99.9726 209.468 100.034 209.563 99.4919C209.657 98.9496 209.879 98.81 210.295 98.2923C210.71 97.7747 210.837 97.1707 211.187 97.142C211.528 97.1091 211.881 97.142 211.881 97.142Z" fill="#2F3033"/>
<path d="M219.544 83.568C219.705 83.757 218.932 86.2713 218.932 86.2713L217.67 86.4315C217.67 86.4315 217.353 86.2713 217.16 86.0823C216.967 85.8933 216.843 85.7947 216.843 85.351C216.843 84.9073 216.683 85.162 217.065 84.3034C217.448 83.4448 217.193 83.9213 217.575 83.2558C217.957 82.5902 218.595 82.7463 218.595 82.7463C218.595 82.7463 219.388 83.379 219.544 83.568Z" fill="#2F3033"/>
<path d="M223.075 65.7665C223.075 65.7665 222.599 66.6868 222.471 66.8799C222.344 67.0689 221.961 67.4222 221.994 67.8659C222.027 68.3096 221.386 69.2956 221.994 69.616C222.603 69.9365 222.664 70.0926 223.08 70.1255C223.495 70.1583 223.556 70.7294 224.066 70.1255C224.576 69.5215 224.383 69.5832 224.638 68.856C224.893 68.1247 224.827 68.2521 225.02 67.6481C225.209 67.0442 225.242 67.2332 225.02 66.5676C224.798 65.9021 224.703 65.52 224.416 65.4871C224.128 65.4543 223.302 65.4871 223.302 65.4871L223.075 65.7665Z" fill="#2F3033"/>
<path d="M225.575 18.3767C225.501 18.6396 224.827 20.6897 224.827 20.8006C224.827 20.9115 223.857 23.2615 223.746 24.1571C223.635 25.0527 223.334 26.3962 223.15 26.9549C222.965 27.5137 222.401 29.12 222.401 29.12C222.401 29.12 222.179 29.2309 221.916 30.3895C221.653 31.5481 221.357 32.0328 221.246 33.1133C221.135 34.1938 220.872 34.5677 220.872 35.5742C220.872 36.5808 220.461 37.2915 220.35 37.9612C220.239 38.6309 220.35 38.8568 220.35 39.3416C220.35 39.8264 220.461 40.2372 220.613 40.4591C220.761 40.6809 220.798 41.0548 221.324 41.0178C221.846 40.9808 221.698 41.2807 222.146 40.7549C222.595 40.2331 222.751 39.5594 222.804 39.1115C222.858 38.6637 222.944 36.7246 222.944 36.7246C222.944 36.7246 223.38 34.8964 223.828 33.5529C224.276 32.2095 224.461 31.5768 224.539 30.8291C224.617 30.0814 224.539 29.6336 224.876 28.59C225.213 27.5465 225.361 27.3945 225.587 26.577C225.809 25.7553 225.513 26.1291 225.924 24.9336C226.335 23.7381 226.298 24.3009 226.557 22.7315C226.821 21.1662 226.779 20.9403 226.969 20.3816C227.154 19.8228 227.08 20.5664 227.565 19.0381C228.05 17.5098 228.313 16.91 228.646 15.9774C228.979 15.0448 229.468 13.8863 229.805 12.8797C230.142 11.8732 232.046 8.62757 232.083 8.40161C232.12 8.17976 232.568 6.79934 232.605 6.68431C232.642 6.57338 233.538 5.41484 233.538 5.19299C233.538 4.97114 234.508 4.03443 234.508 4.03443C234.508 4.03443 234.919 3.21275 235.33 3.43871C235.741 3.66056 236.411 3.96047 236.637 4.22341C236.859 4.48634 237.308 4.48635 237.308 5.30391C237.308 6.12558 237.456 6.90617 237.493 7.57994C237.53 8.2496 237.604 8.40161 237.493 9.26025C237.382 10.1189 237.419 10.5667 237.271 11.6842C237.123 12.8016 237.271 12.0211 236.785 13.6973C236.3 15.3776 236.674 14.256 236.189 16.0103C235.704 17.7645 235.63 17.6536 235.441 18.882C235.256 20.1145 235.141 20.4103 234.845 21.3059C234.549 22.2016 234.323 22.3125 234.023 23.8449C233.723 25.3732 233.464 26.2318 233.353 26.9426C233.242 27.6533 232.979 28.6229 232.868 28.9927C232.757 29.3665 232.531 30.3361 232.009 31.1947C231.486 32.0534 231.26 32.6491 230.927 33.5447C230.59 34.4403 230.516 34.1774 230.257 35.6728C229.998 37.1683 229.698 38.8075 229.546 39.2553C229.398 39.7031 228.876 41.0096 228.613 41.4574C228.35 41.9052 228.017 42.7269 227.828 43.2117C227.643 43.6965 228.013 44.666 228.313 44.8139C228.613 44.9618 229.509 45.4466 229.694 45.8574C229.879 46.2683 229.957 47.8336 229.805 48.2814C229.657 48.7292 229.18 49.7357 228.934 50.2945C228.687 50.8532 228.165 51.7488 227.865 52.1597C227.565 52.5705 226.446 53.577 226.109 53.84C225.772 54.1029 224.802 54.5877 224.543 54.5877C224.284 54.5877 222.603 54.9246 222.377 54.9246C222.151 54.9246 221.707 55.1875 220.621 54.9246C219.536 54.6616 217.448 53.8441 217.189 53.4332C216.926 53.0224 216.44 52.2377 216.44 51.3051C216.44 50.3725 216.588 49.403 216.625 48.9182C216.662 48.4334 217.744 46.6791 217.896 46.3422C218.044 46.0053 219.129 45.2987 219.388 45.2987C219.647 45.2987 220.358 44.3291 220.321 44.2182C220.284 44.1073 219.836 43.4335 219.573 43.3965C219.31 43.3596 217.855 43.0227 217.559 43.2856C217.263 43.5485 217.222 43.3596 216.736 43.8444C216.251 44.3291 215.84 44.8879 215.429 45.4877C215.018 46.0834 214.533 47.205 214.496 47.6898C214.459 48.1746 213.937 50.7875 214.011 51.2353C214.085 51.6831 214.159 53.0635 214.759 53.8112C215.359 54.5589 216.325 55.4135 216.514 55.5655C216.699 55.7134 217.559 56.0872 218.27 56.3502C218.981 56.6131 219.055 57.0198 220.321 57.1349C221.587 57.2499 223.384 57.5211 223.532 57.4019C223.68 57.2828 225.078 57.3197 225.78 57.0239C226.483 56.7281 229.357 55.6805 229.542 54.9739C229.727 54.2631 230.96 53.0347 231.445 52.361C231.93 51.6913 232.49 50.4218 232.379 49.4523C232.268 48.4827 232.041 47.2132 231.967 46.5066C231.893 45.7958 231.334 45.1262 231.219 44.8632C231.108 44.6003 230.66 44.0785 230.66 44.0785C230.66 44.0785 232.49 37.3737 232.527 37.3121C232.564 37.2505 233.645 34.5266 233.723 33.8159C233.797 33.1051 234.919 30.1964 235.067 29.7486C235.215 29.3008 235.889 26.4291 236 26.0922C236.111 25.7553 236.485 24.8597 236.596 24.153C236.707 23.4423 237.55 20.8704 237.55 20.8704C237.55 20.8704 238.389 17.7358 238.463 17.177C238.537 16.6183 238.8 15.6487 238.985 15.164C239.17 14.6792 239.618 12.2922 239.618 12.2922C239.618 12.2922 239.992 9.42047 239.992 9.30544C239.992 9.1904 240.214 8.5947 239.992 7.96201C239.77 7.32933 239.581 7.10337 239.433 6.24472C239.285 5.38608 237.904 2.99912 237.904 2.99912C237.904 2.99912 237.155 2.40341 236.933 2.2514C236.711 2.1035 235.104 1.76662 234.993 1.8036C234.882 1.84057 234.36 1.87754 233.986 2.02544C233.612 2.17334 232.457 2.5472 232.231 2.73619C232.004 2.92517 230.701 4.82733 230.438 5.19709C230.175 5.57095 229.505 8.03185 229.131 8.85352C228.757 9.67519 227.898 12.51 227.898 12.51C227.898 12.51 226.927 14.6011 226.701 15.0078C226.471 15.4269 225.575 18.3767 225.575 18.3767Z" fill="#2F3033"/>
<path d="M232.892 10.7639L233.974 10.0162C233.974 10.0162 234.644 10.427 234.644 10.9488C234.644 11.4705 234.644 12.0662 234.422 12.9619C234.2 13.8575 234.085 15.0119 233.768 15.8706C233.452 16.7292 233.077 17.9987 232.892 18.8163C232.707 19.6379 231.1 26.1661 231.1 26.1661C231.1 26.1661 230.689 27.8094 230.578 28.3312C230.467 28.853 229.682 31.055 229.682 31.055C229.682 31.055 228.675 33.2941 228.601 34.0418C228.527 34.7895 228.227 35.981 228.116 36.4657C228.005 36.9505 227.367 38.4419 227.33 38.6678C227.293 38.8897 226.66 39.9003 226.582 40.57C226.508 41.2396 226.434 42.3982 226.282 43.0309C226.134 43.6636 225.649 44.7482 225.571 45.196C225.497 45.6438 225.271 46.3915 225.271 46.5394C225.271 46.6873 226.019 47.357 226.019 47.357C226.019 47.357 226.319 48.3307 226.319 48.6675C226.319 49.0044 225.871 50.1219 225.834 50.2328C225.797 50.3438 224.975 50.9805 224.753 51.0545C224.531 51.1284 222.965 51.0915 222.796 51.0545C222.627 51.0175 222.101 50.7546 221.953 50.3438C221.805 49.9329 221.731 49.9329 221.69 49.2633C221.653 48.5936 221.242 49.2263 221.69 48.2937C222.138 47.3611 221.99 47.3241 222.401 46.9872C222.812 46.6503 223.15 46.5024 223.15 46.5024C223.15 46.5024 224.268 41.0918 224.383 40.4221C224.494 39.7524 224.494 39.3416 225.016 38.372C225.538 37.4024 226.06 35.7961 226.134 35.4633C226.208 35.1264 226.356 33.6721 226.508 32.8874C226.656 32.1027 226.899 31.5439 227.038 31.0222C227.178 30.5004 226.993 30.7592 227.589 29.3788C228.185 27.9984 228.374 26.9179 228.485 26.3181C228.596 25.7224 228.596 25.3116 229.008 24.0051C229.419 22.6987 229.419 22.5877 229.641 21.955C229.863 21.3224 229.904 21.6921 230.2 19.7899C230.5 17.8878 230.422 18.3356 230.648 17.329C230.87 16.3225 230.685 16.9922 231.244 15.2009C231.803 13.4097 232.066 12.2922 232.103 12.1772C232.144 12.0704 232.892 10.7639 232.892 10.7639ZM223.968 47.9239C223.968 47.9239 223.556 48.0718 223.482 48.2608C223.408 48.4457 223.445 48.4827 223.482 48.7456C223.519 49.0085 223.894 49.1195 223.968 49.0085C224.042 48.8976 224.079 48.9716 224.231 48.7086C224.379 48.4457 224.379 48.1129 224.379 48.1129L223.968 47.9239Z" fill="#2F3033"/>
<path d="M220.72 0.320468C220.72 0.320468 222.96 0.357444 223.297 0.320468C223.635 0.283493 224.864 0.916184 224.864 0.916184C224.864 0.916184 225.423 0.990126 224.864 1.54886C224.305 2.1076 224.153 2.40752 223.894 2.44449C223.635 2.48147 222.964 2.62936 222.796 2.78137C222.627 2.93338 221.953 4.01387 221.953 4.01387C221.953 4.01387 222.463 3.90295 222.919 4.01387C223.371 4.1248 223.672 4.23572 224.046 4.42471C224.42 4.60958 224.716 5.62024 224.716 5.62024C224.716 5.62024 223.82 6.17898 223.635 6.17898C223.45 6.17898 222.964 6.14201 222.627 6.17898C222.29 6.21596 222.031 6.17898 222.031 6.17898C222.031 6.17898 221.731 6.58982 221.657 6.96368C221.583 7.33754 221.542 8.1592 221.489 8.455C221.435 8.7508 221.209 9.27668 221.172 9.3876C221.135 9.49853 220.539 9.83541 220.539 9.83541C220.539 9.83541 219.495 9.90937 219.232 9.35063C218.969 8.79189 218.821 8.75491 219.01 8.04416C219.195 7.33342 219.232 5.17243 219.384 4.42471C219.532 3.67699 219.721 2.37465 219.795 2.22264C219.869 2.07063 220.72 0.320468 220.72 0.320468Z" fill="#2F3033"/>
<path d="M250.886 9.30955C251.19 9.35474 251.482 9.83131 251.634 8.97266C251.782 8.11402 251.819 7.62923 251.634 7.48133C251.449 7.33343 251.038 6.81167 250.553 6.58571C250.068 6.36386 249.509 5.83799 249.024 5.87496C248.539 5.91194 247.083 5.87496 247.083 5.87496C247.083 5.87496 246.15 6.24883 246.002 6.47479C245.854 6.69664 245.217 7.16499 245.069 7.658C244.921 8.151 244.695 9.05073 244.769 9.44102C244.843 9.83131 244.843 10.69 244.917 10.9488C244.991 11.2117 245.55 11.7335 245.776 11.9553C245.998 12.1772 247.305 12.9249 247.305 12.9249C247.305 12.9249 248.502 13.1467 248.613 12.9249C248.724 12.703 249.024 12.1402 249.024 12.0293C249.024 11.9184 249.209 11.6924 248.95 11.4705C248.687 11.2487 248.317 11.0967 248.09 10.9858C247.868 10.8748 246.972 10.427 246.972 10.427C246.972 10.427 246.709 10.0039 246.709 9.44923C246.709 8.89871 246.972 8.56183 247.157 8.2989C247.342 8.03596 247.955 7.78535 248.053 7.66621C248.53 7.08282 250.656 9.27257 250.886 9.30955Z" fill="#2F3033"/>
</svg>
