<?xml version="1.0" encoding="utf-8"?>
<!-- Generator: Adobe Illustrator 23.1.1, SVG Export Plug-In . SVG Version: 6.00 Build 0)  -->
<svg version="1.1" id="Layer_1" xmlns="http://www.w3.org/2000/svg" xmlns:xlink="http://www.w3.org/1999/xlink" x="0px" y="0px"
	 viewBox="0 0 174.57 171.62" style="enable-background:new 0 0 174.57 171.62;" xml:space="preserve">
<style type="text/css">
	.st0{fill:#3B3B3D;}
	.st1{fill:#FFFFFF;}
	.st2{fill:#3A3B3D;}
</style>
<g>
	<g>
		<path d="M80.88,65.75c-1.54,29.96-14.17,58.48-35.34,79.73c-18.78-13.23-31.16-35-31.16-59.67c0-7,1.02-13.66,2.82-20.06H80.88z
			 M117.93,151.89c-9.31,4.35-19.72,6.83-30.65,6.83c-10.93,0-21.34-2.48-30.65-6.83c14.09-14.85,24.5-32.78,30.65-52.08
			C93.43,119.11,103.85,137.03,117.93,151.89 M160.19,85.81c0,24.67-12.38,46.44-31.16,59.67c-21.17-21.26-33.81-49.77-35.34-79.73
			h63.69C159.17,72.15,160.19,78.81,160.19,85.81 M93.52,53.2V29.65c-2.22-0.26-4.27-0.43-6.23-0.43c-1.96,0-4.01,0.17-6.23,0.43
			V53.2h-58.9C34.1,29.3,58.77,12.91,87.28,12.91c28.51,0,53.19,16.39,65.14,40.29H93.52z M172.65,85.81
			c0-47.04-38.33-85.37-85.37-85.37c-47.04,0-85.37,38.33-85.37,85.37s38.33,85.37,85.37,85.37
			C134.32,171.18,172.65,132.85,172.65,85.81"/>
	</g>
</g>
</svg>
