<?xml version="1.0" encoding="utf-8"?>
<!-- Generator: Adobe Illustrator 23.1.1, SVG Export Plug-In . SVG Version: 6.00 Build 0)  -->
<svg version="1.1" id="Layer_1" xmlns="http://www.w3.org/2000/svg" xmlns:xlink="http://www.w3.org/1999/xlink" x="0px" y="0px"
	 viewBox="0 0 1086.4 171.62" style="enable-background:new 0 0 1086.4 171.62;" xml:space="preserve">
<style type="text/css">
	.st0{fill:#3B3B3D;}
	.st1{fill:#FFFFFF;}
	.st2{fill:#3A3B3D;}
</style>
<g>
	<path d="M1023.6,11.71h-15.4L945.63,159.4h16.9l17.33-42.34h71.88l17.24,42.34h16.9L1023.6,11.71z M985.58,102.97l30.22-74.02
		l30.14,74.02H985.58z"/>
	<path d="M606.29,100.92c0,30.56-22.96,46.87-46.1,46.87c-23.14,0-46.18-16.31-46.18-46.87V11.71h-14.77v89.13
		c0,40.29,30.56,61.38,60.95,61.38c30.39,0,60.87-21.09,60.87-61.38V11.71h-14.77V100.92z"/>
	<path d="M800.42,109.2c-5.98,14.26-9.73,23.56-9.73,23.56s-3.84-9.31-9.82-23.56l-40.63-97.49h-23.65V159.4h14.77v-91V28.02
		L785.9,159.4h9.47l54.55-131.38V68.4v91h14.77V11.71h-23.66L800.42,109.2z"/>
	<polygon points="388.34,76 302.29,76 302.29,11.71 287.52,11.71 287.52,159.4 302.29,159.4 302.29,89.82 388.34,89.82 
		388.34,159.4 403.11,159.4 403.11,11.71 388.34,11.71 	"/>
	<path d="M85.88,0.44C38.84,0.44,0.5,38.77,0.5,85.81c0,47.04,38.33,85.37,85.37,85.37c47.04,0,85.37-38.33,85.37-85.37
		C171.24,38.77,132.91,0.44,85.88,0.44z M12.97,85.81c0-7,1.02-13.66,2.82-20.06h63.69c-1.54,29.96-14.17,58.48-35.34,79.73
		C25.35,132.25,12.97,110.48,12.97,85.81z M85.88,158.72c-10.93,0-21.34-2.48-30.65-6.83c14.09-14.85,24.5-32.78,30.65-52.08
		c6.15,19.29,16.56,37.22,30.65,52.08C107.22,156.24,96.8,158.72,85.88,158.72z M158.78,85.81c0,24.67-12.38,46.44-31.16,59.67
		c-21.17-21.26-33.81-49.77-35.34-79.73h63.68C157.76,72.15,158.78,78.81,158.78,85.81z M92.11,53.2V29.65
		c-2.22-0.26-4.27-0.43-6.23-0.43c-1.96,0-4.01,0.17-6.23,0.43V53.2h-58.9c11.95-23.9,36.62-40.29,65.14-40.29
		s53.19,16.39,65.14,40.29H92.11z"/>
</g>
</svg>
