<?xml version="1.0" encoding="utf-8"?>
<!-- Generator: Adobe Illustrator 24.0.1, SVG Export Plug-In . SVG Version: 6.00 Build 0)  -->
<svg version="1.1" id="Layer_1" xmlns="http://www.w3.org/2000/svg" xmlns:xlink="http://www.w3.org/1999/xlink" x="0px" y="0px"
	 width="92px" height="92px" viewBox="0 0 92 92" style="enable-background:new 0 0 92 92;" xml:space="preserve">
<style type="text/css">
	.st0{fill:none;stroke:#424347;stroke-width:2;stroke-linecap:round;stroke-linejoin:round;}
	.st1{fill:none;stroke:#424347;stroke-width:2;stroke-linecap:round;stroke-linejoin:round;stroke-miterlimit:10;}
</style>
<path class="st0" d="M71.3,18.4V9.6c0-1.2-0.8-1.9-1.9-1.9H10.8"/>
<path class="st0" d="M8.8,23v61.7c0,1.2,0.8,1.9,1.9,1.9h58.6c1.2,0,1.9-0.8,1.9-1.9v-9.2"/>
<path class="st1" d="M72.8,64l5.4-5.4l11.9,11.9l-5.4,5L78.2,69"/>
<path class="st1" d="M75.5,61.3l-4.2-4.2"/>
<path class="st1" d="M65.2,26.1c6.9,3.1,11.5,9.6,11.5,17.6c0,10.3-8.4,18.8-18.8,18.8S39.1,54,39.1,43.7c0-9.6,7.3-17.6,16.5-18.8"
	/>
<path class="st1" d="M24.2,31.8H43"/>
<path class="st1" d="M24.2,41h14.6"/>
<path class="st1" d="M24.2,50.2h15.7"/>
</svg>
