<svg width="92" height="92" viewBox="0 0 92 92" fill="none" xmlns="http://www.w3.org/2000/svg">
<path d="M56.6183 9.27663C53.8967 8.24163 50.9833 7.66663 47.9167 7.66663C38.985 7.66663 31.2417 12.4966 27.025 19.665C26.0283 19.435 24.9933 19.2816 23.92 19.2816C16.79 19.2816 11.04 25.0316 11.04 32.1616C11.04 33.3883 11.2317 34.5766 11.5383 35.6883C6.86167 39.1 3.83333 44.5816 3.83333 50.7916C3.83333 61.1416 12.2283 69.575 22.6167 69.575C24.725 69.575 23.0767 69.575 26.7183 69.575" stroke="#424347" stroke-width="2" stroke-miterlimit="10" stroke-linecap="round" stroke-linejoin="round"/>
<path d="M62.8667 69.575C65.6267 69.575 65.4733 69.575 67.16 69.575C78.775 69.575 88.1667 60.145 88.1667 48.5684C88.1667 38.6017 81.19 30.245 71.875 28.0984C71.3 24.5717 69.9967 21.275 68.0417 18.4" stroke="#424347" stroke-width="2" stroke-miterlimit="10" stroke-linecap="round" stroke-linejoin="round"/>
<path d="M52.6317 80.5766V60.4133C52.6317 58.5733 54.1267 57.0783 55.9667 57.0783H59.0717C60.9117 57.0783 62.4067 55.5833 62.4067 53.7433V52.3633" stroke="#424347" stroke-width="2" stroke-miterlimit="10" stroke-linecap="round" stroke-linejoin="round"/>
<path d="M36.9533 69.1533V60.4133C36.9533 58.5733 35.4583 57.0783 33.6183 57.0783H30.5517C28.7117 57.0783 27.2167 55.5833 27.2167 53.7433V46.0383" stroke="#424347" stroke-width="2" stroke-miterlimit="10" stroke-linecap="round" stroke-linejoin="round"/>
<path d="M36.9533 80.5767V75.8234" stroke="#424347" stroke-width="2" stroke-miterlimit="10" stroke-linecap="round" stroke-linejoin="round"/>
<path d="M27.2167 46.0383C29.6513 46.0383 31.625 44.0647 31.625 41.63C31.625 39.1954 29.6513 37.2217 27.2167 37.2217C24.782 37.2217 22.8083 39.1954 22.8083 41.63C22.8083 44.0647 24.782 46.0383 27.2167 46.0383Z" stroke="#424347" stroke-width="2" stroke-miterlimit="10" stroke-linecap="round" stroke-linejoin="round"/>
<path d="M44.7733 37.375C47.208 37.375 49.1817 35.4013 49.1817 32.9667C49.1817 30.532 47.208 28.5583 44.7733 28.5583C42.3387 28.5583 40.365 30.532 40.365 32.9667C40.365 35.4013 42.3387 37.375 44.7733 37.375Z" stroke="#424347" stroke-width="2" stroke-miterlimit="10" stroke-linecap="round" stroke-linejoin="round"/>
<path d="M62.3683 46.0383C64.803 46.0383 66.7767 44.0647 66.7767 41.63C66.7767 39.1954 64.803 37.2217 62.3683 37.2217C59.9337 37.2217 57.96 39.1954 57.96 41.63C57.96 44.0647 59.9337 46.0383 62.3683 46.0383Z" stroke="#424347" stroke-width="2" stroke-miterlimit="10" stroke-linecap="round" stroke-linejoin="round"/>
<path d="M44.7733 57.0017V86.1734" stroke="#424347" stroke-width="2" stroke-miterlimit="10" stroke-linecap="round" stroke-linejoin="round"/>
<path d="M44.7733 37.375V49.9483" stroke="#424347" stroke-width="2" stroke-miterlimit="10" stroke-linecap="round" stroke-linejoin="round"/>
</svg>
