<svg width="92" height="92" viewBox="0 0 92 92" fill="none" xmlns="http://www.w3.org/2000/svg">
<path d="M60.2746 40.9825C60.8222 42.5516 61.1143 44.2302 61.1143 45.9817C61.1143 54.3381 54.3603 61.0888 46 61.0888C37.6397 61.0888 30.8857 54.3381 30.8857 45.9817C30.8857 37.6254 37.6397 30.8746 46 30.8746C48.0809 30.8746 50.0889 31.3125 51.8778 32.0788M84.3333 50.9809V40.9825L74.6952 38.7566C73.9651 35.9103 72.8698 33.2465 71.373 30.7652L76.6301 22.4088L69.5476 15.3296L61.1873 20.5843C58.7413 19.1247 56.0397 17.9935 53.1921 17.2636L51.0016 7.66663H40.9984L38.7714 17.3001C35.9238 18.0299 33.2587 19.1247 30.7762 20.6208L22.4159 15.3661L15.3698 22.4088L20.627 30.7652C19.1667 33.21 18.0349 35.9103 17.3048 38.7566L7.66666 40.9825V50.9809L17.3048 53.2068C18.0349 56.0531 19.1301 58.7169 20.627 61.1983L15.3698 69.5546L22.4524 76.6338L30.8127 71.3791C33.2587 72.8388 35.9603 73.97 38.8079 74.6998L41.0349 84.3333H51.0381L53.2651 74.6998C56.1127 73.97 58.7778 72.8753 61.2603 71.3791L69.6206 76.6338L76.7032 69.5546L71.446 61.1983C72.9063 58.7534 74.0381 56.0531 74.7682 53.2068L84.3333 50.9809Z" stroke="#424347" stroke-width="2" stroke-miterlimit="10" stroke-linecap="round" stroke-linejoin="round"/>
</svg>
